<?xml version="1.0" encoding="UTF-8" standalone="no"?><svg xmlns="http://www.w3.org/2000/svg" xmlns:xlink="http://www.w3.org/1999/xlink" contentStyleType="text/css" height="475px" preserveAspectRatio="none" style="width:475px;height:475px;background:#FFFFFF;" version="1.1" viewBox="0 0 475 475" width="475px" zoomAndPan="magnify"><defs/><g><!--MD5=[add1f11cc0a9945b597266d37d500565]
entity usuario--><g id="elem_usuario"><ellipse cx="31.5" cy="202" fill="#F1F1F1" rx="8" ry="8" style="stroke:#181818;stroke-width:0.5;"/><path d="M31.5,210 L31.5,237 M18.5,218 L44.5,218 M31.5,237 L18.5,252 M31.5,237 L44.5,252 " fill="none" style="stroke:#181818;stroke-width:0.5;"/><text fill="#000000" font-family="sans-serif" font-size="14" lengthAdjust="spacing" textLength="51" x="6" y="266.4951">usuario</text></g><g id="elem_Cadastrar usuario"><ellipse cx="228.5271" cy="24.6054" fill="#F1F1F1" rx="81.0271" ry="18.6054" style="stroke:#181818;stroke-width:0.5;"/><text fill="#000000" font-family="sans-serif" font-size="14" lengthAdjust="spacing" textLength="121" x="166.7415" y="27.8718">Cadastrar usuario</text></g><g id="elem_Login/Logout"><ellipse cx="228.464" cy="94.6928" fill="#F1F1F1" rx="68.964" ry="16.1928" style="stroke:#181818;stroke-width:0.5;"/><text fill="#000000" font-family="sans-serif" font-size="14" lengthAdjust="spacing" textLength="90" x="180.464" y="98.4404">Login/Logout</text></g><g id="elem_Gerenciar Perfil"><ellipse cx="228.7198" cy="385.744" fill="#F1F1F1" rx="74.2198" ry="17.244" style="stroke:#181818;stroke-width:0.5;"/><text fill="#000000" font-family="sans-serif" font-size="14" lengthAdjust="spacing" textLength="104" x="173.7198" y="389.4915">Gerenciar Perfil</text></g><g id="elem_Cadastrar Post"><ellipse cx="228.5678" cy="231.5136" fill="#F1F1F1" rx="73.0678" ry="17.0136" style="stroke:#181818;stroke-width:0.5;"/><text fill="#000000" font-family="sans-serif" font-size="14" lengthAdjust="spacing" textLength="101" x="175.0678" y="235.2611">Cadastrar Post</text></g><g id="elem_Gerenciar Post"><ellipse cx="228.4504" cy="162.5901" fill="#F1F1F1" rx="73.4504" ry="17.0901" style="stroke:#181818;stroke-width:0.5;"/><text fill="#000000" font-family="sans-serif" font-size="14" lengthAdjust="spacing" textLength="102" x="174.4504" y="166.3376">Gerenciar Post</text></g><g id="elem_Processamento de Objetos"><ellipse cx="228.4443" cy="308.6889" fill="#F1F1F1" rx="111.4443" ry="24.6889" style="stroke:#181818;stroke-width:0.5;"/><text fill="#000000" font-family="sans-serif" font-size="14" lengthAdjust="spacing" textLength="189" x="133.9443" y="311.5355">Processamento de Objetos</text></g><g id="elem_Buscar Post"><ellipse cx="228.4626" cy="453.6925" fill="#F1F1F1" rx="66.4626" ry="15.6925" style="stroke:#181818;stroke-width:0.5;"/><text fill="#000000" font-family="sans-serif" font-size="14" lengthAdjust="spacing" textLength="83" x="183.9626" y="457.4401">Buscar Post</text></g><g id="elem_Filtro"><ellipse cx="434.8338" cy="453.5287" fill="#F1F1F1" rx="34.8338" ry="14.5287" style="stroke:#181818;stroke-width:0.5;"/><text fill="#000000" font-family="sans-serif" font-size="14" lengthAdjust="spacing" textLength="33" x="417.6671" y="456.6168">Filtro</text></g><!--MD5=[c5ba6b524a4ee63692fa326fb9904c6a]
link usuario to Cadastrar usuario--><g id="link_usuario_Cadastrar usuario"><path d="M41.9,193.46 C53.37,154.76 76.44,95.61 117,60.5 C128.92,50.18 143.87,42.81 158.88,37.54 " fill="none" id="usuario-to-Cadastrar usuario" style="stroke:#181818;stroke-width:1.0;"/><polygon fill="#181818" points="163.97,35.83,154.1661,34.8902,159.228,37.4154,156.7028,42.4774,163.97,35.83" style="stroke:#181818;stroke-width:1.0;"/></g><!--MD5=[0e25160e042d2a5f1be8157ef01cf2dc]
link usuario to Login/Logout--><g id="link_usuario_Login/Logout"><path d="M55.14,193.44 C70.13,171.28 91.67,144.44 117,127.5 C132.14,117.38 150.47,110.28 167.81,105.34 " fill="none" id="usuario-to-Login/Logout" style="stroke:#181818;stroke-width:1.0;"/><polygon fill="#181818" points="172.67,104.01,162.9313,102.5409,167.8492,105.3364,165.0536,110.2543,172.67,104.01" style="stroke:#181818;stroke-width:1.0;"/></g><!--MD5=[f3aa5375c7483ac76a50f94cdc2d6b3a]
link usuario to Gerenciar Perfil--><g id="link_usuario_Gerenciar Perfil"><path d="M51.01,269.5 C65.59,295.73 88.23,329.52 117,350.5 C131.15,360.81 148.44,368.16 165.11,373.37 " fill="none" id="usuario-to-Gerenciar Perfil" style="stroke:#181818;stroke-width:1.0;"/><polygon fill="#181818" points="170.26,374.91,162.7977,368.4823,165.4728,373.4667,160.4885,376.1418,170.26,374.91" style="stroke:#181818;stroke-width:1.0;"/></g><!--MD5=[5057264a3890d6e19e7a3868e4e45e30]
link usuario to Cadastrar Post--><g id="link_usuario_Cadastrar Post"><path d="M57.2,231.5 C80.54,231.5 116.83,231.5 149.92,231.5 " fill="none" id="usuario-to-Cadastrar Post" style="stroke:#181818;stroke-width:1.0;"/><polygon fill="#181818" points="155.2,231.5,146.2,227.5,150.2,231.5,146.2,235.5,155.2,231.5" style="stroke:#181818;stroke-width:1.0;"/></g><!--MD5=[41cbb5649b1d34ab7c1a8ee1360bb85e]
link usuario to Gerenciar Post--><g id="link_usuario_Gerenciar Post"><path d="M57.03,220.62 C73.77,213.37 96.53,203.87 117,196.5 C136.16,189.6 157.49,182.83 176.26,177.17 " fill="none" id="usuario-to-Gerenciar Post" style="stroke:#181818;stroke-width:1.0;"/><polygon fill="#181818" points="181.48,175.6,171.7095,174.3602,176.6917,177.0394,174.0125,182.0215,181.48,175.6" style="stroke:#181818;stroke-width:1.0;"/></g><!--MD5=[3c64204f011b9810257fe0d6fd776501]
link usuario to Processamento de Objetos--><g id="link_usuario_Processamento de Objetos"><path d="M57.24,241.54 C74.07,248.35 96.86,257.53 117,265.5 C133.31,271.95 151,278.87 167.34,285.23 " fill="none" id="usuario-to-Processamento de Objetos" style="stroke:#181818;stroke-width:1.0;"/><polygon fill="#181818" points="172.37,287.19,165.4173,280.2144,167.7062,285.3874,162.5332,287.6764,172.37,287.19" style="stroke:#181818;stroke-width:1.0;"/></g><!--MD5=[8d486aa510fc2f018461b5e4800b1cb0]
link usuario to Buscar Post--><g id="link_usuario_Buscar Post"><path d="M39.8,269.52 C49.9,311.99 72.21,379.94 117,419.5 C130.68,431.58 148.59,439.37 165.99,444.39 " fill="none" id="usuario-to-Buscar Post" style="stroke:#181818;stroke-width:1.0;"/><polygon fill="#181818" points="170.89,445.74,163.2784,439.4899,166.0702,444.4099,161.1502,447.2017,170.89,445.74" style="stroke:#181818;stroke-width:1.0;"/></g><!--MD5=[4ede704c58794d1075c12adfcdceaca4]
link Buscar Post to Filtro--><g id="link_Buscar Post_Filtro"><path d="M295.05,453.5 C327.82,453.5 366.4,453.5 394.58,453.5 " fill="none" id="Buscar Post-to-Filtro" style="stroke:#181818;stroke-width:1.0;"/><polygon fill="#181818" points="399.71,453.5,390.71,449.5,394.71,453.5,390.71,457.5,399.71,453.5" style="stroke:#181818;stroke-width:1.0;"/></g><!--MD5=[23db0fe3010e14af8bae8b116deca8b3]
link Cadastrar usuario to Login/Logout--><g id="link_Cadastrar usuario_Login/Logout"><path d="M228.5,43.02 C228.5,53.05 228.5,63.09 228.5,73.12 " fill="none" id="Cadastrar usuario-to-Login/Logout" style="stroke:#181818;stroke-width:1.0;stroke-dasharray:7.0,7.0;"/><polygon fill="#181818" points="228.5,78.37,232.5,69.37,228.5,73.37,224.5,69.37,228.5,78.37" style="stroke:#181818;stroke-width:1.0;"/></g><!--MD5=[ba72d233d07c4e502f048b66137ef043]
link Login/Logout to Gerenciar Perfil--><g id="link_Login/Logout_Gerenciar Perfil"><path d="M162.84,99.44 C133.59,105.5 102.33,118.31 87,145 C66.19,181.23 66.19,296.77 87,333 C101.01,357.38 128.14,370.55 154.93,377.62 " fill="none" id="Login/Logout-to-Gerenciar Perfil" style="stroke:#181818;stroke-width:1.0;stroke-dasharray:7.0,7.0;"/><polygon fill="#181818" points="159.92,378.87,152.1631,372.8012,155.0701,377.654,150.2174,380.561,159.92,378.87" style="stroke:#181818;stroke-width:1.0;"/></g><!--MD5=[2ae159fa8036b66cb2bb163bad8e8a4c]
link Login/Logout to Processamento de Objetos--><g id="link_Login/Logout_Processamento de Objetos"><path d="M162.84,99.44 C133.59,105.5 102.33,118.31 87,145 C64.2,184.7 64.2,208.3 87,248 C98.51,268.03 118.38,281.43 139.66,290.4 " fill="none" id="Login/Logout-to-Processamento de Objetos" style="stroke:#181818;stroke-width:1.0;stroke-dasharray:7.0,7.0;"/><polygon fill="#181818" points="144.51,292.36,137.6767,285.2673,139.8775,290.4785,134.6663,292.6793,144.51,292.36" style="stroke:#181818;stroke-width:1.0;"/></g><!--MD5=[06f1aff639ff71809318d96e8cd596fe]
link Login/Logout to Cadastrar Post--><g id="link_Login/Logout_Cadastrar Post"><path d="M162.84,99.44 C133.59,105.5 102.33,118.31 87,145 C79.47,158.1 79.47,165.9 87,179 C101.13,203.6 128.61,216.78 155.63,223.8 " fill="none" id="Login/Logout-to-Cadastrar Post" style="stroke:#181818;stroke-width:1.0;stroke-dasharray:7.0,7.0;"/><polygon fill="#181818" points="160.67,225.04,152.8921,218.9981,155.8159,223.8408,150.9733,226.7646,160.67,225.04" style="stroke:#181818;stroke-width:1.0;"/></g><!--MD5=[e987f964ad496548e070c7c205e45872]
link Login/Logout to Gerenciar Post--><g id="link_Login/Logout_Gerenciar Post"><path d="M228.5,110.75 C228.5,120.54 228.5,130.33 228.5,140.12 " fill="none" id="Login/Logout-to-Gerenciar Post" style="stroke:#181818;stroke-width:1.0;stroke-dasharray:7.0,7.0;"/><polygon fill="#181818" points="228.5,145.23,232.5,136.23,228.5,140.23,224.5,136.23,228.5,145.23" style="stroke:#181818;stroke-width:1.0;"/></g><!--MD5=[4219534d9cc3ac84358295ccf9cf562d]
link Cadastrar Post to Processamento de Objetos--><g id="link_Cadastrar Post_Processamento de Objetos"><path d="M228.5,248.67 C228.5,258.65 228.5,268.64 228.5,278.62 " fill="none" id="Cadastrar Post-to-Processamento de Objetos" style="stroke:#181818;stroke-width:1.0;stroke-dasharray:7.0,7.0;"/><polygon fill="#181818" points="228.5,283.84,232.5,274.84,228.5,278.84,224.5,274.84,228.5,283.84" style="stroke:#181818;stroke-width:1.0;"/></g><!--MD5=[d0d2208a610446ea0597d17214ce081e]
@startuml
left to right direction

actor usuario

usuario - -> (Cadastrar usuario)
usuario - -> (Login/Logout)
usuario - -> (Gerenciar Perfil)
usuario - -> (Cadastrar Post)
usuario - -> (Gerenciar Post)
usuario - -> (Processamento de Objetos)
usuario - -> (Buscar Post)
(Buscar Post) - -> (Filtro)

(Cadastrar usuario) .> (Login/Logout)
(Login/Logout) .> (Gerenciar Perfil)
(Login/Logout) .> (Processamento de Objetos)
(Login/Logout) .> (Cadastrar Post)
(Login/Logout) .> (Gerenciar Post)
(Cadastrar Post) .> (Processamento de Objetos)
@enduml

PlantUML version 1.2022.7(Mon Aug 22 17:01:30 UTC 2022)
(GPL source distribution)
Java Runtime: OpenJDK Runtime Environment
JVM: OpenJDK 64-Bit Server VM
Default Encoding: UTF-8
Language: en
Country: null
--></g></svg>